<svg id="Capa_1" enable-background="new 0 0 505.016 505.016" height="512" viewBox="0 0 505.016 505.016" width="512" xmlns="http://www.w3.org/2000/svg"><path d="m24 473.283c0 17.498 14.235 31.733 31.733 31.733h393.55c17.497 0 31.732-14.235 31.732-31.733v-221.818c0-12.84-20-12.859-20 0v221.817c0 6.47-5.263 11.733-11.732 11.733h-393.549c-6.47 0-11.733-5.264-11.733-11.733v-317.48h417.016v15.767c0 12.84 20 12.859 20 0v-25.767-78.27c0-17.498-14.235-31.733-31.732-31.733h-51.34c-.405-19.807-16.633-35.799-36.535-35.799-19.903 0-36.13 15.992-36.534 35.799h-144.737c-.403-19.807-16.63-35.799-36.532-35.799s-36.129 15.992-36.533 35.799h-51.34c-17.498 0-31.734 14.236-31.734 31.734zm320.858-436.731c0-9.126 7.426-16.552 16.553-16.552s16.552 7.425 16.552 16.552v18.495c0 9.126-7.425 16.552-16.552 16.552s-16.553-7.425-16.553-16.552zm-217.803 0c0-9.126 7.425-16.552 16.552-16.552s16.552 7.425 16.552 16.552v18.495c0 9.126-7.425 16.552-16.552 16.552s-16.552-7.425-16.552-16.552zm-83.055 30.981c0-6.47 5.264-11.733 11.733-11.733h51.34c.404 19.807 16.631 35.799 36.533 35.799s36.129-15.992 36.533-35.799h144.737c.404 19.807 16.631 35.799 36.534 35.799 19.902 0 36.129-15.992 36.533-35.799h51.34c6.47 0 11.732 5.264 11.732 11.733v68.27h-417.015z"/><path d="m156.743 257.574c-4.928 4.778-5.072 16.598 4.179 16.598 6.73 0 14.835-.086 14.835 9.248v127.208c0 10.468 19.298 10.338 19.298 0v-42.28c0-12.858 20-12.84 20 0v42.28c0 8.937-4.215 17.011-11.563 22.153-10.764 7.525-26.113 7.523-36.724-.3-6.992-5.133-11.012-13.103-11.012-21.854v-116.934c-13.226-2.49-22.621-14.829-22.621-28.105 0-5.743 1.58-14.087 8.976-21.665l20.666-29.236c.014-.019.046-.064.059-.083l.198-.271c5.784-7.896 14.344-12.46 23.437-12.46 6.588 0 12.853 2.16 18.116 6.246 6.657 5.185 10.468 12.935 10.468 21.274v58.203c0 12.858-20 12.84-20 0v-58.203c0-4.527-4.39-7.52-8.584-7.52-1.901 0-4.72.754-7.352 4.345z"/><path d="m251.043 398.083c-1.77 4.422-2.559 7.962-2.559 11.481 0 16.956 15.163 29.382 31.512 29.382 10.808 0 19.979-5.633 24.563-15.075l78.455-153.213c7.505-12.12 5.406-27.36 5.406-40.999 0-15.267-14.298-27.52-29.116-27.52h-94.477c-14.823 0-28.851 12.313-28.851 27.52v40.186c0 8.126 3.815 15.793 10.457 21.027 10.807 8.541 26.882 8.531 37.851.311 6.984-5.252 10.99-13.029 10.99-21.338v-9.739h27.773zm18.605 7.353 78.337-149.861c3.5-6.697-1.098-15.469-8.862-15.469h-53.848c-5.522 0-10 4.477-10 10v19.739c0 9.938-19.298 10.045-19.298 0v-40.186c0-4.301 4.95-7.52 8.851-7.52h94.477c3.877 0 9.116 3.173 9.116 7.52v22.887c0 3.324-1.571 5.799-3.011 8.609l-78.707 153.705c-5.115 9.98-21.221.918-17.055-9.424z"/><path d="m480.249 207.375c-2.094-5.028-8.021-7.5-13.061-5.41-5.033 2.088-7.487 8.029-5.409 13.06 2.08 5.036 8.03 7.493 13.06 5.41 5.05-2.091 7.478-8.015 5.41-13.06z"/><path d="m212.559 322.195c-2.986-4.568-9.359-5.767-13.87-2.77-4.542 3.017-5.761 9.344-2.76 13.869 3.018 4.549 9.34 5.762 13.87 2.761 4.537-3.005 5.772-9.346 2.76-13.86z"/></svg>