<svg height="512pt" viewBox="0 -10 512 512" width="512pt" xmlns="http://www.w3.org/2000/svg"><path d="m464.09375 461.492188c9.707031 0 17.601562-7.894532 17.601562-17.601563v-272.6875c0-9.707031-7.894531-17.601563-17.601562-17.601563h-416.1875c-9.707031 0-17.601562 7.894532-17.601562 17.601563v272.6875c0 9.707031 7.894531 17.601563 17.601562 17.601563zm-139.832031-146.445313v131.445313h-136.523438v-131.445313zm-136.523438-15v-131.445313h136.523438v131.445313zm276.355469 146.445313h-124.832031v-131.445313h127.433593v128.84375c0 1.433594-1.167968 2.601563-2.601562 2.601563zm2.601562-275.289063v128.84375h-127.433593v-131.445313h124.832031c1.433594 0 2.601562 1.167969 2.601562 2.601563zm-418.789062-2.601563h124.832031v131.445313h-127.433593v-128.84375c0-1.433594 1.167968-2.601563 2.601562-2.601563zm-2.601562 275.289063v-128.84375h127.433593v131.445313h-124.832031c-1.433594 0-2.601562-1.167969-2.601562-2.601563zm0 0"/><path d="m484.300781 40.410156h-23.820312v-22.808594c0-9.703124-7.894531-17.601562-17.601563-17.601562h-14.140625c-9.707031 0-17.601562 7.894531-17.601562 17.601562v22.808594h-40.558594v-22.808594c0-9.703124-7.898437-17.601562-17.601563-17.601562h-14.144531c-9.703125 0-17.601562 7.894531-17.601562 17.601562v22.808594h-40.558594v-22.808594c0-9.703124-7.894531-17.601562-17.601563-17.601562h-14.144531c-9.703125 0-17.601562 7.894531-17.601562 17.601562v22.808594h-40.558594v-22.808594c0-9.703124-7.894531-17.601562-17.601563-17.601562h-14.140624c-9.707032 0-17.601563 7.894531-17.601563 17.601562v22.808594h-40.5625v-22.808594c0-9.703124-7.894531-17.601562-17.601563-17.601562h-14.136718c-9.707032 0-17.601563 7.894531-17.601563 17.601562v22.808594h-23.820312c-15.273438 0-27.699219 12.425782-27.699219 27.699219v92.246094c0 4.144531 3.359375 7.5 7.5 7.5s7.5-3.355469 7.5-7.5v-24.078125h482v214.058594c0 4.144531 3.359375 7.5 7.5 7.5s7.5-3.355469 7.5-7.5v-282.226563c0-15.273437-12.425781-27.699219-27.699219-27.699219zm-58.164062-22.808594c0-1.433593 1.167969-2.601562 2.601562-2.601562h14.140625c1.4375 0 2.601563 1.167969 2.601563 2.601562v60.609376c0 1.4375-1.164063 2.601562-2.601563 2.601562h-14.140625c-1.433593 0-2.601562-1.164062-2.601562-2.601562zm-89.90625 0c0-1.433593 1.167969-2.601562 2.605469-2.601562h14.140624c1.433594 0 2.601563 1.167969 2.601563 2.601562v60.609376c0 1.4375-1.167969 2.601562-2.601563 2.601562h-14.140624c-1.4375 0-2.605469-1.164062-2.605469-2.601562zm-89.902344 0c0-1.433593 1.164063-2.601562 2.601563-2.601562h14.140624c1.4375 0 2.605469 1.167969 2.605469 2.601562v60.609376c0 1.4375-1.167969 2.601562-2.605469 2.601562h-14.140624c-1.4375 0-2.601563-1.164062-2.601563-2.601562zm-89.90625 0c0-1.433593 1.167969-2.601562 2.601563-2.601562h14.144531c1.433593 0 2.601562 1.167969 2.601562 2.601562v60.609376c0 1.4375-1.167969 2.601562-2.601562 2.601562h-14.144531c-1.433594 0-2.601563-1.164062-2.601563-2.601562zm-89.902344 0c0-1.433593 1.164063-2.601562 2.601563-2.601562h14.140625c1.433593 0 2.601562 1.167969 2.601562 2.601562v60.609376c0 1.4375-1.167969 2.601562-2.601562 2.601562h-14.140625c-1.4375 0-2.601563-1.164062-2.601563-2.601562zm-51.519531 103.675782v-53.167969c0-7.003906 5.695312-12.699219 12.699219-12.699219h23.820312v22.804688c0 9.703125 7.894531 17.601562 17.601563 17.601562h14.140625c9.707031 0 17.601562-7.898437 17.601562-17.601562v-22.804688h40.558594v22.804688c0 9.703125 7.898437 17.601562 17.601563 17.601562h14.144531c9.703125 0 17.601562-7.898437 17.601562-17.601562v-22.804688h40.558594v22.804688c0 9.703125 7.894531 17.601562 17.601563 17.601562h14.144531c9.703125 0 17.601562-7.898437 17.601562-17.601562v-22.804688h40.558594v22.804688c0 9.703125 7.894531 17.601562 17.601563 17.601562h14.140624c9.707032 0 17.601563-7.898437 17.601563-17.601562v-22.804688h40.5625v22.804688c0 9.703125 7.894531 17.601562 17.601563 17.601562h14.140624c9.707032 0 17.601563-7.898437 17.601563-17.601562v-22.804688h23.816406c7.003907 0 12.699219 5.695313 12.699219 12.699219v53.167969zm0 0"/><path d="m504.5 377.941406c-4.140625 0-7.5 3.355469-7.5 7.5v78.65625c0 7.003906-5.695312 12.703125-12.699219 12.703125h-456.601562c-7.003907 0-12.699219-5.699219-12.699219-12.703125v-268.699218c0-4.140626-3.359375-7.5-7.5-7.5s-7.5 3.359374-7.5 7.5v268.699218c0 15.273438 12.425781 27.703125 27.699219 27.703125h456.601562c15.273438 0 27.699219-12.429687 27.699219-27.703125v-78.65625c0-4.144531-3.359375-7.5-7.5-7.5zm0 0"/><path d="m355.574219 232.308594 14.550781 14.183594-3.433594 20.023437c-.648437 3.777344.386719 7.617187 2.84375 10.527344 2.484375 2.949219 6.105469 4.640625 9.929688 4.640625 2.082031 0 4.167968-.519532 6.035156-1.5l17.984375-9.457032 17.984375 9.457032c1.867188.980468 3.953125 1.5 6.035156 1.5 3.824219 0 7.445313-1.691406 9.929688-4.640625 2.457031-2.914063 3.492187-6.75 2.84375-10.527344l-3.433594-20.023437 14.546875-14.183594c3.558594-3.46875 4.816406-8.5625 3.28125-13.289063-1.535156-4.726562-5.546875-8.109375-10.464844-8.824219l-20.105469-2.921874-8.992187-18.21875c-2.199219-4.457032-6.65625-7.226563-11.625-7.226563-4.972656 0-9.425781 2.769531-11.625 7.226563l-8.992187 18.21875-20.105469 2.921874c-4.917969.714844-8.929688 4.097657-10.464844 8.824219-1.535156 4.726563-.28125 9.820313 3.277344 13.289063zm30.507812-10.34375c4.226563-.613282 7.875-3.265625 9.761719-7.09375l7.640625-15.476563 7.636719 15.476563c1.890625 3.828125 5.539062 6.480468 9.765625 7.09375l17.082031 2.484375-12.359375 12.046875c-3.058594 2.976562-4.453125 7.269531-3.730469 11.476562l2.917969 17.015625-15.277344-8.035156c-1.855469-.972656-3.941406-1.488281-6.035156-1.488281s-4.179687.515625-6.03125 1.488281l-15.28125 8.03125 2.917969-17.011719c.722656-4.207031-.671875-8.496094-3.726563-11.476562l-12.363281-12.046875zm0 0"/></svg>