<?xml version="1.0" encoding="iso-8859-1"?>
<!-- Generator: Adobe Illustrator 19.0.0, SVG Export Plug-In . SVG Version: 6.00 Build 0)  -->
<svg version="1.1" id="Layer_1" xmlns="http://www.w3.org/2000/svg" xmlns:xlink="http://www.w3.org/1999/xlink" x="0px" y="0px"
	 viewBox="0 0 512 512" style="enable-background:new 0 0 512 512;" xml:space="preserve">
<g>
	<g>
		<path d="M512,65.826l-76.797,10.969L446.175,0l-58.415,58.413c-39.762-27.068-87.789-42.898-139.518-42.898
			C111.141,15.515,0,126.656,0,263.758S111.141,512,248.242,512c137.1,0,248.242-111.141,248.242-248.242
			c0-51.729-15.83-99.758-42.898-139.52L512,65.826z M390.864,406.379c-38.096,38.096-88.745,59.075-142.621,59.075
			s-104.527-20.98-142.621-59.075c-38.096-38.094-59.076-88.745-59.076-142.622s20.98-104.527,59.076-142.621
			c38.094-38.096,88.745-59.076,142.621-59.076c46.04,0,89.715,15.332,125.223,43.562l-55.467,55.467
			c-19.881-13.534-43.892-21.453-69.756-21.453c-68.551,0-124.121,55.571-124.121,124.121s55.571,124.121,124.121,124.121
			s124.121-55.571,124.121-124.121c0-25.864-7.919-49.875-21.453-69.756l55.467-55.467c28.23,35.506,43.562,79.183,43.562,125.223
			C449.939,317.634,428.96,368.283,390.864,406.379z M237.992,274.008c4.544,4.544,10.501,6.816,16.457,6.816
			c5.956,0,11.913-2.271,16.455-6.817l46.1-46.1c5.616,10.732,8.814,22.922,8.814,35.851c0,42.775-34.8,77.576-77.576,77.576
			s-77.576-34.8-77.576-77.576s34.8-77.576,77.576-77.576c12.929,0,25.118,3.196,35.849,8.814l-46.1,46.1
			C228.903,250.185,228.903,264.92,237.992,274.008z"/>
	</g>
</g>
<g>
</g>
<g>
</g>
<g>
</g>
<g>
</g>
<g>
</g>
<g>
</g>
<g>
</g>
<g>
</g>
<g>
</g>
<g>
</g>
<g>
</g>
<g>
</g>
<g>
</g>
<g>
</g>
<g>
</g>
</svg>
