<?xml version="1.0" encoding="UTF-8" standalone="no"?><!-- Generator: Gravit.io --><svg xmlns="http://www.w3.org/2000/svg" xmlns:xlink="http://www.w3.org/1999/xlink" style="isolation:isolate" viewBox="0 0 800 600" width="800pt" height="600pt"><defs><clipPath id="_clipPath_PGn5LQ1VR9pFDGnKt4605fbYI0xJ3UvR"><rect width="800" height="600"/></clipPath></defs><g clip-path="url(#_clipPath_PGn5LQ1VR9pFDGnKt4605fbYI0xJ3UvR)"><clipPath id="_clipPath_w8pFmntg3S7uRZpTwXn62ms5uQD1NbIG"><path d=" M -120 -67 L -120 733 L 880 733 L 880 -67 L -120 -67 Z " fill="rgb(255,255,255)"/></clipPath><g clip-path="url(#_clipPath_w8pFmntg3S7uRZpTwXn62ms5uQD1NbIG)"><path d=" M 542.368 175.586 L 542.368 175.586 C 521.546 144.203 473.423 144.203 452.599 175.586 L 434.724 202.52 L 246.138 486.73 C 240.23 495.633 229.935 501.031 218.867 501.031 C 193.476 501.031 178.045 474.419 191.593 453.998 L 396.593 145.055 L 441.478 77.411 C 452.399 60.954 452.399 39.994 441.478 23.539 C 420.654 -7.846 372.534 -7.846 351.707 23.537 L 333.835 50.474 L 5.915 544.665 C -10.027 568.691 8.129 600 38 600 L 94.714 600 L 170.978 600 L 270.679 600 L 275.576 600 C 288.598 600 300.712 593.647 307.662 583.174 L 497.482 297.101 L 542.368 229.457 C 553.288 213.003 553.288 192.043 542.368 175.586 Z " fill="rgb(48,92,174)"/><path d=" M 769.658 600 C 793.55 600 808.038 574.926 795.23 555.745 L 699.264 412.035 L 699.264 412.037 L 661.132 354.569 L 661.132 354.569 L 607.881 274.315 C 603.47 267.667 593.279 267.667 588.868 274.315 L 535.614 354.569 L 424.126 522.59 C 401.824 556.199 427.222 600 469.012 600 C 487.23 600 504.174 591.113 513.898 576.461 L 571.101 490.25 C 583.756 471.182 612.993 471.182 625.646 490.25 L 625.646 490.25 C 632.281 500.249 632.281 512.984 625.646 522.982 L 581.685 589.234 C 578.584 593.908 582.116 600 587.929 600 L 769.658 600 Z " fill="rgb(58,103,217)"/></g></g></svg>