<svg height="512pt" viewBox="-14 0 512 512" width="512pt" xmlns="http://www.w3.org/2000/svg"><path d="m478.597656 422.660156-53.730468-57.765625c-2.675782-2.875-5.664063-5.402343-8.894532-7.542969 26.3125-38.085937 40.15625-82.53125 40.15625-129.289062 0-60.917969-23.726562-118.1875-66.800781-161.265625-43.074219-43.074219-100.34375-66.796875-161.265625-66.796875-60.917969 0-118.1875 23.722656-161.265625 66.796875-43.074219 43.078125-66.796875 100.347656-66.796875 161.265625 0 60.921875 23.722656 118.191406 66.796875 161.269531 18.980469 18.980469 40.71875 34.203125 64.3125 45.292969l-12.769531 24.632812c-9.164063 17.675782-2.238282 39.511719 15.4375 48.671876 5.210937 2.703124 10.871094 4.070312 16.574218 4.070312 3.671876 0 7.359376-.566406 10.960938-1.707031 9.191406-2.917969 16.699219-9.238281 21.136719-17.800781l19.605469-37.824219c8.574218.96875 17.253906 1.457031 26.007812 1.457031 8.742188 0 17.421875-.488281 26.007812-1.460938l19.605469 37.824219c4.4375 8.5625 11.945313 14.886719 21.140625 17.804688 3.597656 1.140625 7.285156 1.707031 10.957032 1.707031 5.703124 0 11.367187-1.367188 16.574218-4.070312 17.675782-9.160157 24.605469-30.996094 15.441406-48.671876l-12.796874-24.683593c7.714843-3.628907 15.242187-7.703125 22.554687-12.214844 1.796875 3.042969 3.925781 5.90625 6.367187 8.53125l53.730469 57.765625c3.648438 3.921875 8.644531 6.046875 13.8125 6.046875 1.789063 0 3.597657-.253906 5.378907-.777344 6.921874-2.03125 12.019531-7.707031 13.296874-14.808593l3.84375-21.347657c.105469-.589843.59375-1.042969 1.1875-1.105469l21.566407-2.289062c7.175781-.761719 13.203125-5.433594 15.730469-12.191406 2.527343-6.757813 1.050781-14.242188-3.863282-19.523438zm-313.902344 60.628906c-1.980468 3.816407-5.328124 6.636719-9.429687 7.9375-4.105469 1.304688-8.464844.929688-12.285156-1.050781-7.882813-4.089843-10.972657-13.828125-6.886719-21.714843l13.539062-26.117188c10.277344 3.757812 20.835938 6.765625 31.617188 9.003906zm155.339844-14.828124c1.976563 3.820312 2.351563 8.183593 1.050782 12.285156-1.300782 4.101562-4.121094 7.449218-7.941407 9.429687-3.820312 1.980469-8.179687 2.355469-12.28125 1.054688-4.101562-1.304688-7.449219-4.121094-9.429687-7.941407l-16.566406-31.960937c10.757812-2.238281 21.316406-5.253906 31.609374-9.023437zm-12.214844-48.152344c-.140624.050781-.28125.105468-.421874.164062-15.730469 6.488282-32.253907 11.023438-49.109376 13.476563-.058593.007812-.117187.019531-.171874.027343-9.886719 1.425782-19.921876 2.148438-30.054688 2.148438-114.722656 0-208.0625-93.335938-208.0625-208.0625s93.335938-208.0625 208.0625-208.0625c114.730469 0 208.066406 93.335938 208.066406 208.0625 0 44.222656-13.570312 86.171875-39.308594 121.738281-.355468-.058593-42.820312-4.640625-42.820312-4.640625l-1.789062-1.921875c61.585937-66.328125 60.117187-170.394531-4.40625-234.917969-31.679688-31.679687-73.792969-49.292968-118.589844-49.597656-.394532-.003906-.78125-.003906-1.179688-.003906-44.308594 0-86.160156 16.96875-117.949218 47.851562-3.960938 3.851563-4.050782 10.179688-.203126 14.144532 3.847657 3.957031 10.179688 4.050781 14.140626.203125 28.035156-27.238281 64.9375-42.199219 104.015624-42.199219.347657 0 .695313.003906 1.042969.003906 39.503907.269532 76.644531 15.804688 104.582031 43.738282 56.550782 56.554687 58.179688 147.550781 4.886719 206.085937l-24.367187-26.195313c17.230468-19.949218 27.664062-45.921874 27.664062-74.289062 0-62.738281-51.042968-113.78125-113.78125-113.78125-62.742187 0-113.785156 51.042969-113.785156 113.78125s51.042969 113.78125 113.785156 113.78125c27.1875 0 52.175782-9.582031 71.769532-25.550781l24.296874 26.121093c-58.613281 49.320313-146.523437 46.40625-201.675781-8.746093-24.097656-24.097657-38.882812-54.683594-42.761719-88.457031-2.414062-21-.292968-42.714844 6.128907-62.789063 1.683593-5.261719-1.21875-10.890625-6.476563-12.570313-5.257812-1.683593-10.890625 1.21875-12.574218 6.476563-7.277344 22.757813-9.683594 47.367187-6.949219 71.164063 4.398437 38.308593 21.167969 72.996093 48.488281 100.320312 33.015625 33.015625 76.378906 49.519531 119.746094 49.519531 39.101562 0 78.199218-13.417969 109.710937-40.257812l1.589844 1.707031s1.578125 43.570312 1.636719 44.0625c-10.578125 6.855469-21.675782 12.6875-33.175782 17.464844zm-35.019531-162.445313c5.707031-8.535156 9.035157-18.785156 9.035157-29.800781 0-29.648438-24.121094-53.769531-53.773438-53.769531-29.648438 0-53.769531 24.121093-53.769531 53.769531s24.121093 53.769531 53.769531 53.769531c11.417969 0 22.015625-3.574219 30.730469-9.664062l27.390625 29.449219c-15.988282 12.660156-36.1875 20.230468-58.121094 20.230468-51.710938 0-93.78125-42.074218-93.78125-93.785156s42.070312-93.78125 93.78125-93.78125 93.785156 42.070312 93.785156 93.78125c0 22.589844-8.03125 43.335938-21.382812 59.542969zm-33.570312-36.089843c-3.761719-4.046876-10.089844-4.273438-14.132813-.511719-4.042968 3.761719-4.269531 10.085937-.511718 14.132812l20.375 21.902344c-4.972657 2.882813-10.746094 4.539063-16.898438 4.539063-18.621094 0-33.769531-15.152344-33.769531-33.773438s15.148437-33.769531 33.769531-33.769531c18.625 0 33.773438 15.148437 33.773438 33.769531 0 5.1875-1.175782 10.101562-3.273438 14.496094zm181.597656 251.691406-52.269531-56.195313c-3.289063-3.535156-5.632813-7.800781-6.871094-12.398437-.511719-1.898438-.960938-5.847656-.960938-5.863282-.007812-.113281-.609374-17.90625-.609374-17.90625l31.542968 33.910157c.039063.046875 33.480469 35.996093 33.480469 35.996093-.363281 1.039063-4.3125 22.457032-4.3125 22.457032zm18.953125-36.078125-65.023438-69.90625s18.902344 2.070312 18.929688 2.074219c1.386719.242187 4.113281 1.023437 4.117188 1.027343 4.714843 1.539063 8.996093 4.253907 12.417968 7.933594l52.269532 56.195313s-21.648438 2.386718-22.710938 2.675781zm0 0"/><path d="m92.46875 154.304688c2.5625 0 5.117188-.980469 7.070312-2.929688l.019532-.019531c3.90625-3.902344 3.894531-10.226563-.007813-14.132813-3.910156-3.90625-10.246093-3.894531-14.152343.007813-3.90625 3.90625-3.90625 10.238281 0 14.144531 1.953124 1.949219 4.511718 2.929688 7.070312 2.929688zm0 0"/></svg>