<svg id="Capa_1" enable-background="new 0 0 492.002 492.002" height="512" viewBox="0 0 492.002 492.002" width="512" xmlns="http://www.w3.org/2000/svg"><path d="m319.809 65.076c2.889-1.623 3.916-5.28 2.294-8.169-.663-1.18-1.705-2.102-2.958-2.615l-131.506-53.843c-3.066-1.256-6.57.212-7.826 3.278-.296.722-.448 1.495-.448 2.275v191.427l-164.561 285.573c-1.657 2.87-.674 6.539 2.196 8.196.913.527 1.949.805 3.004.804h451.995c3.314.002 6.002-2.682 6.004-5.996.001-1.055-.277-2.091-.804-3.004l-165.368-286.964c-1.653-2.872-5.321-3.86-8.193-2.207-.917.528-1.679 1.289-2.207 2.207l-55.432 96.201-54.634-94.81v-60.227zm-128.444-50.134 111.741 45.75-111.741 62.744zm-50.096 465.06h-110.884l154.98-268.952 154.982 268.952zm165.364-268.952 154.981 268.952h-107.415l-101.275-175.747z"/></svg>