<?xml version="1.0" encoding="iso-8859-1"?>
<!-- Generator: Adobe Illustrator 19.1.0, SVG Export Plug-In . SVG Version: 6.00 Build 0)  -->
<svg version="1.1" id="Capa_1" xmlns="http://www.w3.org/2000/svg" xmlns:xlink="http://www.w3.org/1999/xlink" x="0px" y="0px"
	 viewBox="0 0 484.3 484.3" style="enable-background:new 0 0 484.3 484.3;" xml:space="preserve">
<g>
	<g>
		<path d="M430.3,74.25c-40.9-46.3-99.7-72.8-161.4-72.8c-6.6,0-12,5.4-12,12v203.4c0,6.6,5.4,12,12,12h203.4c6.6,0,12-5.4,12-12
			C484.2,164.25,465.1,113.55,430.3,74.25z M280.9,204.75v-179c50.4,3.2,97.8,26.2,131.4,64.3c28.2,32,44.9,72.3,47.5,114.7H280.9z"
			/>
		<path d="M418.7,255.55c-6.6,0-12,5.4-12,12c0,105.5-85.8,191.4-191.4,191.4S24,373.05,24,267.55c0-105.6,85.8-191.4,191.3-191.4
			c6.6,0,12-5.4,12-12s-5.4-12-12-12c-57.5,0-111.6,22.4-152.2,63.1C22.4,155.95,0,210.05,0,267.55s22.4,111.6,63.1,152.2
			c40.7,40.7,94.8,63.1,152.3,63.1s111.6-22.4,152.3-63.1s63.1-94.8,63.1-152.3C430.7,260.85,425.3,255.55,418.7,255.55z"/>
		<path d="M215.3,102.95c-6.6,0-12,5.4-12,12c0,6.6,5.4,12,12,12s12-5.4,12-12S222,102.95,215.3,102.95z"/>
		<path d="M215.3,153.85c-6.6,0-12,5.4-12,12s5.4,12,12,12s12-5.4,12-12S222,153.85,215.3,153.85z"/>
		<path d="M215.3,204.65c-6.6,0-12,5.4-12,12s5.4,12,12,12s12-5.4,12-12S222,204.65,215.3,204.65z"/>
		<path d="M206.9,259.05c-2.2,2.2-3.5,5.3-3.5,8.5s1.3,6.3,3.5,8.5c2.2,2.2,5.3,3.5,8.5,3.5c3.2,0,6.3-1.3,8.5-3.5
			c2.2-2.2,3.5-5.3,3.5-8.5s-1.3-6.3-3.5-8.5c-2.2-2.2-5.3-3.5-8.5-3.5C212.2,255.55,209.1,256.75,206.9,259.05z"/>
		<path d="M329,267.55c0-6.6-5.4-12-12-12s-12,5.4-12,12s5.4,12,12,12S329,274.15,329,267.55z"/>
		<path d="M278.2,267.55c0-6.6-5.4-12-12-12s-12,5.4-12,12s5.4,12,12,12S278.2,274.15,278.2,267.55z"/>
		<path d="M379.9,267.55c0-6.6-5.4-12-12-12s-12,5.4-12,12s5.4,12,12,12S379.9,274.15,379.9,267.55z"/>
	</g>
</g>
<g>
</g>
<g>
</g>
<g>
</g>
<g>
</g>
<g>
</g>
<g>
</g>
<g>
</g>
<g>
</g>
<g>
</g>
<g>
</g>
<g>
</g>
<g>
</g>
<g>
</g>
<g>
</g>
<g>
</g>
</svg>
