<?xml version='1.0' encoding='utf-8'?>
<!DOCTYPE svg PUBLIC '-//W3C//DTD SVG 1.1//EN' 'http://www.w3.org/Graphics/SVG/1.1/DTD/svg11.dtd'>
<svg version="1.1" xmlns="http://www.w3.org/2000/svg" viewBox="0 0 512 512" xmlns:xlink="http://www.w3.org/1999/xlink" enable-background="new 0 0 512 512">
  <g>
    <g>
      <path d="m230.8,277l57.4-179.6c-22-8-45.6-12.4-70.3-12.4-114.5,0-207.3,93.8-207.3,209.4s92.8,209.4 207.3,209.4 207.3-93.8 207.3-209.4c0-21-3.1-41.3-8.8-60.5l-185.6,43.1zm-12.9,208.7c-104.5,0-189.3-85.6-189.3-191.2s84.7-191.2 189.3-191.2c15.9,0 31.2,2 46,5.7l-63.6,198.9 203.9-47.3c2,11 3,22.3 3,33.9 0,105.6-84.7,191.2-189.3,191.2z"/>
      <path d="M500.6,179.1C467.9,35.5,347.5,13.9,347.5,13.9l-63.6,214.7L500.6,179.1z M361,38.9c69.6,24.6,101,80.8,114.9,125.1    L313,201.2L361,38.9z"/>
    </g>
  </g>
</svg>
