<?xml version="1.0" encoding="iso-8859-1"?>
<!-- Generator: Adobe Illustrator 19.0.0, SVG Export Plug-In . SVG Version: 6.00 Build 0)  -->
<svg version="1.1" id="Capa_1" xmlns="http://www.w3.org/2000/svg" xmlns:xlink="http://www.w3.org/1999/xlink" x="0px" y="0px"
	 viewBox="0 0 512.005 512.005" style="enable-background:new 0 0 512.005 512.005;" xml:space="preserve">
<g transform="translate(0 -1)">
	<g>
		<g>
			<path d="M85.336,410.605H17.069c-9.421,0.012-17.054,7.646-17.067,17.067v68.267c0.012,9.421,7.646,17.054,17.067,17.067h68.267
				c9.421-0.012,17.054-7.646,17.067-17.067v-68.267C102.39,418.251,94.757,410.617,85.336,410.605z M17.069,495.939v-68.267h68.267
				l0.017,68.267H17.069z"/>
			<path d="M221.869,359.405h-68.267c-9.421,0.012-17.054,7.646-17.067,17.067v119.467c0.012,9.421,7.646,17.054,17.067,17.067
				h68.267c9.421-0.012,17.054-7.646,17.067-17.067V376.472C238.924,367.051,231.29,359.417,221.869,359.405z M153.603,495.939
				V376.472h68.267l0.017,119.467H153.603z"/>
			<path d="M358.403,274.072h-68.267c-9.421,0.012-17.054,7.646-17.067,17.067v204.8c0.012,9.421,7.646,17.054,17.067,17.067h68.267
				c9.421-0.012,17.054-7.646,17.067-17.067v-204.8C375.457,281.718,367.823,274.084,358.403,274.072z M290.136,495.939v-204.8
				h68.267l0.017,204.8H290.136z"/>
			<path d="M494.936,222.872h-8.533V26.439C486.314,12.363,474.878,1,460.803,1c-14.076,0-25.511,11.363-25.6,25.439v0.167h-85.333
				c-9.421,0.012-17.055,7.646-17.067,17.067v17.067h-76.8c-3.31,0.003-6.321,1.919-7.725,4.917
				c-1.404,2.998-0.95,6.537,1.167,9.083l38.117,45.733l-38.117,45.733c-2.117,2.545-2.571,6.085-1.167,9.083
				c1.404,2.998,4.415,4.914,7.725,4.917h128c9.421-0.012,17.055-7.646,17.067-17.067v-17.067h34.133v76.8h-8.533
				c-9.421,0.012-17.054,7.646-17.067,17.067v256c0.012,9.421,7.646,17.054,17.067,17.067h68.267
				c9.421-0.012,17.054-7.646,17.067-17.067v-256C511.99,230.518,504.357,222.884,494.936,222.872z M452.269,137.539v-111.1
				c0.091-4.648,3.884-8.369,8.533-8.369c4.649,0,8.443,3.721,8.533,8.369v196.433h-17.067V137.539z M384.003,163.139H274.219
				l31.008-37.2c2.633-3.169,2.633-7.765,0-10.933l-31.008-37.2h58.583v51.2c0.012,9.421,7.646,17.054,17.067,17.067h34.133V163.139
				z M349.869,129.005V43.672h85.333v85.333H349.869z M426.669,495.939v-256h68.267l0.017,256H426.669z"/>
		</g>
	</g>
</g>
<g>
</g>
<g>
</g>
<g>
</g>
<g>
</g>
<g>
</g>
<g>
</g>
<g>
</g>
<g>
</g>
<g>
</g>
<g>
</g>
<g>
</g>
<g>
</g>
<g>
</g>
<g>
</g>
<g>
</g>
</svg>
