<svg height="512" viewBox="0 0 60 60" width="512" xmlns="http://www.w3.org/2000/svg"><g id="019---Sale-Calendar"><path id="Shape" d="m55 2h-1v-1c0-.55228475-.4477153-1-1-1s-1 .44771525-1 1v1h-3v-1c0-.55228475-.4477153-1-1-1s-1 .44771525-1 1v1h-3v-1c0-.55228475-.4477153-1-1-1s-1 .44771525-1 1v1h-3v-1c0-.55228475-.4477153-1-1-1s-1 .44771525-1 1v1h-3v-1c0-.55228475-.4477153-1-1-1s-1 .44771525-1 1v1h-1c-1.9871759.00102379-3.7851298 1.17872289-4.58 3h-21.42c-2.76142375 0-5 2.23857625-5 5v31c0 2.7614237 2.23857625 5 5 5h15.06c0 1.79-.35 5.89-4.33 8h-1.73c-1.6568542 0-3 1.3431458-3 3s1.3431458 3 3 3h24c1.6568542 0 3-1.3431458 3-3s-1.3431458-3-3-3h-.73c-4-2.11-4.37-6.22-4.33-8h14.06c2.7614237 0 5-2.2385763 5-5v-7h3c2.7614237 0 5-2.2385763 5-5v-22c0-2.76142375-2.2385763-5-5-5zm-24 2h1v1c0 .55228475.4477153 1 1 1s1-.44771525 1-1v-1h3v1c0 .55228475.4477153 1 1 1s1-.44771525 1-1v-1h3v1c0 .55228475.4477153 1 1 1s1-.44771525 1-1v-1h3v1c0 .55228475.4477153 1 1 1s1-.44771525 1-1v-1h3v1c0 .55228475.4477153 1 1 1s1-.44771525 1-1v-1h1c1.6568542 0 3 1.34314575 3 3v2h-30v-2c0-1.65685425 1.3431458-3 3-3zm8 53c0 .5522847-.4477153 1-1 1h-24c-.5522847 0-1-.4477153-1-1s.4477153-1 1-1h24c.5522847 0 1 .4477153 1 1zm-5.08-3h-14.84c2.0001827-2.1763684 3.0759502-5.0450817 3-8h8.92c-.0977117 2.9439168.9488528 5.8112167 2.92 8zm13.08-10h-42c-1.65685425 0-3-1.3431458-3-3v-2h48v2c0 1.6568542-1.3431458 3-3 3zm3-7h-48v-27c0-1.65685425 1.34314575-3 3-3h21v10.59l-8.5 8.5-4.29-4.3c-.1877666-.1893127-.4433625-.2957983-.71-.2957983s-.5222334.1064856-.71.2957983l-7.5 7.5c-.39212217.3921222-.39212217 1.0278778 0 1.42s1.02787783.3921222 1.42 0l6.79-6.8 4.29 4.3c.1877666.1893127.4433625.2957983.71.2957983s.5222334-.1064856.71-.2957983l7.79-7.8v8.59c0 2.7614237 2.2385763 5 5 5h19zm5-5h-24c-1.6568542 0-3-1.3431458-3-3v-18h30v18c0 1.6568542-1.3431458 3-3 3z"/><path id="Shape" d="m36 13h-5c-.5522847 0-1 .4477153-1 1v5c0 .5522847.4477153 1 1 1h5c.5522847 0 1-.4477153 1-1v-5c0-.5522847-.4477153-1-1-1zm-1 5h-3v-3h3z"/><path id="Shape" d="m36 22h-5c-.5522847 0-1 .4477153-1 1v5c0 .5522847.4477153 1 1 1h5c.5522847 0 1-.4477153 1-1v-5c0-.5522847-.4477153-1-1-1zm-1 5h-3v-3h3z"/><path id="Shape" d="m46 13h-6c-.5522847 0-1 .4477153-1 1v5c0 .5522847.4477153 1 1 1h6c.5522847 0 1-.4477153 1-1v-5c0-.5522847-.4477153-1-1-1zm-1 5h-4v-3h4z"/><path id="Shape" d="m46 22h-6c-.5522847 0-1 .4477153-1 1v5c0 .5522847.4477153 1 1 1h6c.5522847 0 1-.4477153 1-1v-5c0-.5522847-.4477153-1-1-1zm-1 5h-4v-3h4z"/><path id="Shape" d="m55 13h-5c-.5522847 0-1 .4477153-1 1v5c0 .5522847.4477153 1 1 1h5c.5522847 0 1-.4477153 1-1v-5c0-.5522847-.4477153-1-1-1zm-1 5h-3v-3h3z"/><path id="Shape" d="m55 22h-5c-.5522847 0-1 .4477153-1 1v5c0 .5522847.4477153 1 1 1h5c.5522847 0 1-.4477153 1-1v-5c0-.5522847-.4477153-1-1-1zm-1 5h-3v-3h3z"/><path id="Shape" d="m24 33h-19c-.55228475 0-1 .4477153-1 1s.44771525 1 1 1h19c.5522847 0 1-.4477153 1-1s-.4477153-1-1-1z"/><path id="Shape" d="m7.34 18.75c.41439667.3639711 1.04524219.3237044 1.41-.09l7-8c.335802-.416915.2837133-1.02433498-.1181682-1.37799067-.4018815-.3536557-1.0109946-.32809334-1.3818318.05799067l-7 8c-.36397111.4143967-.32370438 1.0452422.09 1.41z"/><path id="Shape" d="m8 11c-.55228475 0-1-.4477153-1-1 0-.55228475.44771525-1 1-1s1 .44771525 1 1c0 .5522847-.44771525 1-1 1z"/><path id="Shape" d="m15 19c-.5522847 0-1-.4477153-1-1s.4477153-1 1-1 1 .4477153 1 1-.4477153 1-1 1z"/></g></svg>