<?xml version="1.0" encoding="iso-8859-1"?>
<!-- Generator: Adobe Illustrator 19.0.0, SVG Export Plug-In . SVG Version: 6.00 Build 0)  -->
<svg version="1.1" id="Capa_1" xmlns="http://www.w3.org/2000/svg" xmlns:xlink="http://www.w3.org/1999/xlink" x="0px" y="0px"
	 viewBox="0 0 512.003 512.003" style="enable-background:new 0 0 512.003 512.003;" xml:space="preserve">
<g>
	<g>
		<g>
			<path d="M163.784,199.31h53.645l29.372,32.775c2.34,2.612,5.693,4.11,9.2,4.11s6.86-1.498,9.199-4.109l29.373-32.776h53.645
				c9.488,0,17.207-7.719,17.207-17.206V75.334l32.903-33.373c3.348-3.395,5.148-8.074,4.938-12.837
				c-0.21-4.763-2.414-9.266-6.048-12.354L382.333,4.122c-6.808-5.788-16.766-5.442-23.162,0.798l-32.649,31.867
				c-0.102-0.004-0.203-0.015-0.307-0.015H163.784c-9.488,0-17.207,7.719-17.207,17.206v128.126
				C146.577,191.591,154.296,199.31,163.784,199.31z M161.577,53.979c0-1.217,0.99-2.207,2.207-2.207h147.388L281.4,80.832
				c-2.964,2.893-3.022,7.641-0.128,10.605c2.892,2.963,7.64,3.02,10.606,0.128l77.771-75.911c0.821-0.802,2.099-0.845,2.972-0.103
				l14.884,12.648c0.638,0.543,0.76,1.226,0.776,1.585c0.015,0.358-0.046,1.05-0.634,1.646L258.618,162.299
				c-0.533,0.54-1.144,0.656-1.563,0.657c-0.003,0-0.006,0-0.009,0c-0.419,0-1.027-0.112-1.56-0.646l-62.887-62.883
				c-0.535-0.534-0.647-1.143-0.647-1.56c0-0.418,0.112-1.026,0.647-1.561l13.728-13.727c0.859-0.86,2.262-0.86,3.121,0
				l36.633,36.631c4.759,4.757,12.549,4.802,17.363,0.104l10.983-10.72c2.965-2.893,3.023-7.641,0.129-10.605
				c-2.894-2.963-7.642-3.022-10.605-0.128l-9.112,8.894l-34.783-34.782c-6.711-6.709-17.625-6.709-24.336,0L181.992,85.7
				c-6.709,6.708-6.709,17.624,0,24.333l62.887,62.882c3.252,3.252,7.569,5.04,12.166,5.04c0.021,0,0.042,0,0.063,0
				c4.62-0.016,8.95-1.837,12.192-5.126l81.125-82.282v91.556c0,1.217-0.99,2.207-2.207,2.207h-56.994
				c-2.132,0-4.163,0.908-5.585,2.495l-29.638,33.071l-29.638-33.07c-1.422-1.588-3.453-2.495-5.585-2.495h-56.994
				c-1.217,0-2.207-0.99-2.207-2.207V53.979z"/>
			<path d="M504.501,497H444.05v-41.033c0-9.487-7.719-17.206-17.207-17.206h-31.328v-41.033c0-9.487-7.719-17.206-17.207-17.206
				h-21.621v-41.033c0-9.487-7.719-17.206-17.207-17.206h-17.738V281.25c0-9.487-7.719-17.206-17.207-17.206h-97.07
				c-9.488,0-17.207,7.719-17.207,17.206v41.036H172.52c-9.488,0-17.207,7.719-17.207,17.206v41.033h-21.621
				c-9.488,0-17.207,7.719-17.207,17.206v41.033H85.157c-9.488,0-17.207,7.719-17.207,17.206v41.033H7.501
				c-4.143,0-7.5,3.358-7.5,7.5c0,4.142,3.357,7.5,7.5,7.5H126.25c4.143,0,7.5-3.358,7.5-7.5c0-4.142-3.357-7.5-7.5-7.5h-43.3
				V455.97c0-1.217,0.99-2.207,2.207-2.207h232.726c4.143,0,7.5-3.358,7.5-7.5c0-4.142-3.357-7.5-7.5-7.5H131.486V397.73
				c0-1.217,0.99-2.207,2.207-2.207h70.134c4.143,0,7.5-3.358,7.5-7.5c0-4.142-3.357-7.5-7.5-7.5h-33.513V339.49
				c0-1.217,0.99-2.207,2.207-2.207h89.305c4.143,0,7.5-3.358,7.5-7.5c0-4.142-3.357-7.5-7.5-7.5H205.26V281.25
				c0-1.217,0.99-2.207,2.207-2.207h97.07c1.217,0,2.207,0.99,2.207,2.207v41.03H288.52c-4.143,0-7.5,3.358-7.5,7.5
				c0,4.142,3.357,7.5,7.5,7.5h50.962c1.217,0,2.207,0.99,2.207,2.207v41.033H230.763c-4.143,0-7.5,3.358-7.5,7.5
				c0,4.142,3.357,7.5,7.5,7.5h147.546c1.217,0,2.207,0.99,2.207,2.207v41.033h-34.483c-4.143,0-7.5,3.358-7.5,7.5
				c0,4.142,3.357,7.5,7.5,7.5h80.812c1.217,0,2.207,0.99,2.207,2.207V497H156.019c-4.143,0-7.5,3.358-7.5,7.5
				c0,4.142,3.357,7.5,7.5,7.5h348.482c4.143,0,7.5-3.358,7.5-7.5C512.001,500.359,508.644,497.001,504.501,497z"/>
		</g>
	</g>
</g>
<g>
</g>
<g>
</g>
<g>
</g>
<g>
</g>
<g>
</g>
<g>
</g>
<g>
</g>
<g>
</g>
<g>
</g>
<g>
</g>
<g>
</g>
<g>
</g>
<g>
</g>
<g>
</g>
<g>
</g>
</svg>
