<svg id="Layer_1" enable-background="new 0 0 60 60" height="512" viewBox="0 0 60 60" width="512" xmlns="http://www.w3.org/2000/svg"><path d="m30.03 8c-12.131 0-22 9.869-22 22s9.869 22 22 22 22-9.869 22-22c0-.552-.448-1-1-1s-1 .448-1 1c0 11.028-8.972 20-20 20s-20-8.972-20-20 8.972-20 20-20c.552 0 1-.448 1-1s-.448-1-1-1z"/><path d="m30.03 18c.552 0 1-.448 1-1s-.448-1-1-1c-7.72 0-14 6.28-14 14s6.28 14 14 14 14-6.28 14-14c0-.552-.448-1-1-1s-1 .448-1 1c0 6.617-5.383 12-12 12s-12-5.383-12-12 5.383-12 12-12z"/><path d="m33.501 25.115c-.981-.699-2.177-1.115-3.471-1.115-3.309 0-6 2.691-6 6s2.691 6 6 6 6-2.691 6-6c0-1.294-.416-2.49-1.115-3.471l13.528-13.529h4.586c.265 0 .52-.105.707-.293l6-6c.286-.286.372-.716.217-1.09s-.52-.617-.924-.617h-4v-4c0-.404-.244-.769-.617-.924-.375-.155-.804-.07-1.09.217l-6 6c-.188.188-.293.442-.293.707v4.586z"/><path d="m59.03 29c-.552 0-1 .448-1 1 0 15.439-12.561 28-28 28s-28-12.561-28-28 12.561-28 28-28c.552 0 1-.448 1-1s-.448-1-1-1c-16.542 0-30 13.458-30 30s13.458 30 30 30 30-13.458 30-30c0-.552-.448-1-1-1z"/></svg>